<svg width="11" height="18" viewBox="0 0 11 18" fill="none" xmlns="http://www.w3.org/2000/svg">
<path d="M10.7753 9C10.7753 8.71556 10.6707 8.46878 10.4616 8.25964L2.7068 0.555071C2.50603 0.354295 2.26343 0.253906 1.97902 0.253906C1.67786 0.253906 1.42899 0.352204 1.23239 0.548799C1.0358 0.745377 0.9375 0.990062 0.9375 1.28286C0.9375 1.55891 1.03789 1.8057 1.23866 2.02321L8.2531 9L1.23866 15.9768C1.03789 16.1943 0.9375 16.4411 0.9375 16.7171C0.9375 17.0099 1.0358 17.2546 1.23239 17.4512C1.42899 17.6478 1.67786 17.7461 1.97902 17.7461C2.26343 17.7461 2.50603 17.6457 2.7068 17.4449L10.4616 9.74035C10.562 9.63159 10.6394 9.51657 10.6937 9.39527C10.7481 9.27397 10.7753 9.14221 10.7753 9Z" fill="black"/>
</svg>
