<svg width="15" height="20" viewBox="0 0 15 20" fill="none" xmlns="http://www.w3.org/2000/svg">
<path d="M7.10359 20L6.72305 19.5349C6.46935 19.1966 0 11.6279 0 7.1036C0 3.17125 3.21353 0 7.10359 0C10.9937 0 14.2072 3.21354 14.2072 7.1036C14.2072 11.6279 7.73784 19.2389 7.48414 19.5349L7.10359 20ZM7.10359 0.972523C3.72093 0.972523 1.0148 3.72093 1.0148 7.06131C1.0148 10.6131 5.70824 16.6596 7.10359 18.3932C8.49894 16.6596 13.1924 10.6554 13.1924 7.06131C13.1924 3.72093 10.4863 0.972523 7.10359 0.972523Z" fill="#787878"/>
<path d="M7.10456 9.80875C5.62465 9.80875 4.39844 8.58254 4.39844 7.10262C4.39844 5.62271 5.62465 4.39648 7.10456 4.39648C8.58448 4.39648 9.81069 5.62271 9.81069 7.10262C9.81069 8.58254 8.58448 9.80875 7.10456 9.80875ZM7.10456 5.41129C6.17433 5.41129 5.41323 6.17239 5.41323 7.10262C5.41323 8.03286 6.17433 8.79396 7.10456 8.79396C8.0348 8.79396 8.7959 8.03286 8.7959 7.10262C8.7959 6.17239 8.0348 5.41129 7.10456 5.41129Z" fill="#787878"/>
</svg>
